HIERARCHY
ROOT Hips
{
	OFFSET 0.000000 0.000000 0.000000
	CHANNELS 6 Xposition Yposition Zposition Zrotation Yrotation Xrotation 
	JOINT LHipJoint
	{
		OFFSET 0.000000 0.000000 0.000000
		CHANNELS 3 Zrotation Yrotation Xrotation
		JOINT LeftUpLeg
		{
			OFFSET 1.363060 -1.794630 0.839290
			CHANNELS 3 Zrotation Yrotation Xrotation
			JOINT LeftLeg
			{
				OFFSET 2.448110 -6.726130 0.000000
				CHANNELS 3 Zrotation Yrotation Xrotation
				JOINT LeftFoot
				{
					OFFSET 2.562200 -7.039590 0.000000
					CHANNELS 3 Zrotation Yrotation Xrotation
					JOINT LeftToeBase
					{
						OFFSET 0.157640 -0.433110 2.322550
						CHANNELS 3 Zrotation Yrotation Xrotation
						End Site
						{
							OFFSET 0.000000 0.000000 0.000000
						}
					}
				}
			}
		}
	}
	JOINT RHipJoint
	{
		OFFSET 0.000000 0.000000 0.000000
		CHANNELS 3 Zrotation Yrotation Xrotation
		JOINT RightUpLeg
		{
			OFFSET -1.305520 -1.794630 0.839290
			CHANNELS 3 Zrotation Yrotation Xrotation
			JOINT RightLeg
			{
				OFFSET -2.542530 -6.985550 0.000000
				CHANNELS 3 Zrotation Yrotation Xrotation
				JOINT RightFoot
				{
					OFFSET -2.568260 -7.056230 0.000000
					CHANNELS 3 Zrotation Yrotation Xrotation
					JOINT RightToeBase
					{
						OFFSET -0.164730 -0.452590 2.363150
						CHANNELS 3 Zrotation Yrotation Xrotation
						End Site
						{
							OFFSET 0.000000 0.000000 0.000000
						}
					}
				}
			}
		}
	}
	JOINT LowerBack
	{
		OFFSET 0.000000 0.000000 0.000000
		CHANNELS 3 Zrotation Yrotation Xrotation
		JOINT Spine
		{
			OFFSET 0.028270 2.035590 -0.193380
			CHANNELS 3 Zrotation Yrotation Xrotation
			JOINT Spine1
			{
				OFFSET 0.056720 2.048850 -0.042750
				CHANNELS 3 Zrotation Yrotation Xrotation
				JOINT Neck
				{
					OFFSET 0.000000 0.000000 0.000000
					CHANNELS 3 Zrotation Yrotation Xrotation
					JOINT Neck1
					{
						OFFSET -0.054170 1.746240 0.172020
						CHANNELS 3 Zrotation Yrotation Xrotation
						JOINT Head
						{
							OFFSET 0.104070 1.761360 -0.123970
							CHANNELS 3 Zrotation Yrotation Xrotation
							End Site
							{
								OFFSET 0.000000 0.000000 0.000000
							}
						}
					}
				}
				JOINT LeftShoulder
				{
					OFFSET 0.000000 0.000000 0.000000
					CHANNELS 3 Zrotation Yrotation Xrotation
					JOINT LeftArm
					{
						OFFSET 3.362410 1.200890 -0.311210
						CHANNELS 3 Zrotation Yrotation Xrotation
						JOINT LeftForeArm
						{
							OFFSET 4.983000 -0.000000 -0.000000
							CHANNELS 3 Zrotation Yrotation Xrotation
							JOINT LeftHand
							{
								OFFSET 3.483560 -0.000000 -0.000000
								CHANNELS 3 Zrotation Yrotation Xrotation
								JOINT LeftFingerBase
								{
									OFFSET 0.000000 0.000000 0.000000
									CHANNELS 3 Zrotation Yrotation Xrotation
									JOINT LeftHandIndex1
									{
										OFFSET 0.715260 -0.000000 -0.000000
										CHANNELS 3 Zrotation Yrotation Xrotation
										End Site
										{
											OFFSET 0.000000 0.000000 0.000000
										}
									}
								}
								JOINT LThumb
								{
									OFFSET 0.000000 0.000000 0.000000
									CHANNELS 3 Zrotation Yrotation Xrotation
									End Site
									{
										OFFSET 0.000000 0.000000 0.000000
									}
								}
							}
						}
					}
				}
				JOINT RightShoulder
				{
					OFFSET 0.000000 0.000000 0.000000
					CHANNELS 3 Zrotation Yrotation Xrotation
					JOINT RightArm
					{
						OFFSET -3.136600 1.374050 -0.404650
						CHANNELS 3 Zrotation Yrotation Xrotation
						JOINT RightForeArm
						{
							OFFSET -5.241900 -0.000000 -0.000000
							CHANNELS 3 Zrotation Yrotation Xrotation
							JOINT RightHand
							{
								OFFSET -3.444170 -0.000000 -0.000000
								CHANNELS 3 Zrotation Yrotation Xrotation
								JOINT RightFingerBase
								{
									OFFSET 0.000000 0.000000 0.000000
									CHANNELS 3 Zrotation Yrotation Xrotation
									JOINT RightHandIndex1
									{
										OFFSET -0.622530 -0.000000 -0.000000
										CHANNELS 3 Zrotation Yrotation Xrotation
										End Site
										{
											OFFSET 0.000000 0.000000 0.000000
										}
									}
								}
								JOINT RThumb
								{
									OFFSET 0.000000 0.000000 0.000000
									CHANNELS 3 Zrotation Yrotation Xrotation
									End Site
									{
										OFFSET 0.000000 0.000000 0.000000
									}
								}
							}
						}
					}
				}
			}
		}
	}
}
MOTION
Frames: 7
Frame Time: 0.008333
5.941741 16.402533 0.825872 21.711237 77.238959 26.665999 -8.958073 0.325823 1.414233 -17.693142 -0.520115 -36.762988 -1.582548 1.415913 38.311288 1.570317 8.101082 -8.647832 -0.099200 0.000000 -13.669500 12.534976 -3.900723 -2.062846 -7.011575 -14.054320 -2.071161 -0.712940 -3.998826 52.242741 -1.025655 8.368507 27.348677 5.315700 -0.000001 -77.966600 -10.261520 2.304442 -1.045669 -2.672253 2.879749 -3.918242 -4.831199 2.767835 -2.276845 4.807529 0.302515 -7.192672 -2.066790 -0.168173 0.083902 0.000000 0.000000 0.000000 -9.908964 16.776833 2.948283 -57.911739 33.897367 26.674966 -4.408508 -26.647639 -0.052336 -11.834811 14.491749 -1.515491 -0.089201 -0.142548 -0.000000 0.000000 0.000000 0.000000 0.000000 0.000000 0.000000 3.184056 8.754377 -0.232677 48.986450 41.418461 20.892584 0.427692 74.392768 -0.027736 -3.179331 6.883425 -0.204567 -0.006635 -0.512254 0.000000 0.000000 0.000000 0.000000 0.000000 0.000000 0.000000 
6.115750 16.349237 0.834909 23.489891 77.099748 28.090040 -8.813464 0.385535 1.126261 -18.549253 -0.111188 -36.305818 -1.608584 1.501603 39.910588 1.633430 8.118633 -10.340223 -0.405100 -0.000000 -13.150901 12.814005 -3.655289 -2.230721 -8.037153 -14.379241 -3.674485 -0.932477 -4.226020 55.998442 -1.341436 5.081707 27.468245 3.624700 0.000000 -74.077801 -10.528657 2.176109 -0.500500 -2.725816 2.771090 -3.836576 -4.903799 2.670576 -2.356663 4.917860 0.578660 -7.192384 -2.207109 -0.177627 0.064824 0.000000 0.000000 0.000000 -10.435932 16.511238 3.112032 -57.885048 31.274431 27.069029 -4.380440 -25.410097 -0.047103 -11.106910 13.984005 -1.369085 -0.091777 -0.125243 -0.000000 0.000000 0.000000 0.000000 0.000000 0.000000 0.000000 3.757681 9.176261 -0.174501 50.257687 40.380853 21.069445 0.445420 73.506782 -0.030833 -3.683598 7.340980 -0.252879 0.004973 -0.516548 0.000000 0.000000 0.000000 0.000000 0.000000 0.000000 0.000000 
6.286427 16.299203 0.842382 25.161195 76.961281 29.381970 -8.668739 0.454083 0.842088 -19.357798 0.279827 -35.673032 -1.645709 1.573273 41.262313 1.701885 8.138796 -12.038723 -0.718200 0.000000 -12.726100 13.073661 -3.389536 -2.414510 -8.984054 -14.664297 -5.242144 -1.160181 -4.473258 59.625305 -1.667765 1.299053 26.877407 1.614400 0.000000 -69.919000 -10.743909 2.058617 0.073013 -2.769060 2.669714 -3.747644 -4.978479 2.580105 -2.431092 5.014365 0.855932 -7.176805 -2.358604 -0.187954 0.048404 0.000000 0.000000 0.000000 -10.928529 16.225275 3.276522 -57.918828 28.394985 27.239372 -4.360886 -23.938672 -0.041290 -10.128373 13.426623 -1.194962 -0.094177 -0.106040 -0.000000 0.000000 0.000000 0.000000 0.000000 0.000000 0.000000 4.360334 9.585229 -0.126892 51.602406 39.221821 21.220183 0.463322 72.478425 -0.034410 -4.270359 7.893752 -0.314894 0.017301 -0.520652 0.000000 0.000000 0.000000 0.000000 0.000000 0.000000 0.000000 
6.454763 16.253902 0.848527 26.759844 76.842739 30.587885 -8.524495 0.530002 0.570987 -20.112377 0.618264 -34.877304 -1.689667 1.632416 42.368005 1.773955 8.166742 -13.672764 -1.026200 -0.000000 -12.414000 13.314854 -3.110947 -2.610045 -9.849087 -14.919819 -6.774579 -1.398448 -4.737615 63.067527 -1.995784 -2.691218 25.568814 -0.455500 0.000000 -65.432900 -10.911285 1.952800 0.659189 -2.803677 2.576651 -3.653943 -5.056814 2.496868 -2.497536 5.103293 1.117183 -7.141806 -2.518373 -0.198977 0.036239 0.000000 0.000000 0.000000 -11.366449 15.904045 3.431420 -58.011721 25.293786 27.164814 -4.346976 -22.256858 -0.035021 -8.863209 12.814199 -0.994227 -0.095442 -0.085361 -0.000000 0.000000 0.000000 0.000000 0.000000 0.000000 0.000000 4.992921 9.950046 -0.088373 53.014231 37.935528 21.332310 0.482347 71.285123 -0.038236 -4.922342 8.519631 -0.391218 0.029926 -0.523687 -0.000000 0.000000 0.000000 0.000000 0.000000 0.000000 0.000000 
6.621760 16.214784 0.853594 28.308121 76.758804 31.743905 -8.381839 0.611832 0.320898 -20.806918 0.880898 -33.939913 -1.736672 1.680662 43.234623 1.846883 8.203536 -15.181472 -1.317500 0.000000 -12.221600 13.537197 -2.827092 -2.810762 -10.624335 -15.151444 -8.277446 -1.646204 -5.012574 66.269075 -2.312204 -6.578092 23.600335 -2.317401 0.000000 -60.588600 -11.030048 1.861114 1.239996 -2.830610 2.494336 -3.560811 -5.142343 2.422567 -2.563159 5.189744 1.350963 -7.075200 -2.683252 -0.210636 0.032480 0.000000 0.000000 0.000000 -11.749751 15.492469 3.564738 -58.152665 22.072457 26.766663 -4.335342 -20.439449 -0.028560 -7.278372 12.142168 -0.769889 -0.094473 -0.063971 -0.000000 0.000000 0.000000 0.000000 0.000000 0.000000 0.000000 5.654501 10.245113 -0.052887 54.488978 36.506648 21.386583 0.503905 69.905916 -0.042050 -5.620175 9.186778 -0.480754 0.042444 -0.524698 -0.000000 0.000000 0.000000 0.000000 0.000000 0.000000 0.000000 
6.788341 16.183067 0.857911 29.823789 76.719681 32.884233 -8.241180 0.698303 0.097719 -21.439275 1.054376 -32.888828 -1.784109 1.719660 43.873891 1.917640 8.247304 -16.520839 -1.582900 0.000000 -12.140300 13.740002 -2.544123 -3.009132 -11.300811 -15.363133 -9.761844 -1.898173 -5.288906 69.180606 -2.600674 -10.080195 21.088952 -3.757100 -0.000000 -55.409600 -11.101546 1.783143 1.798186 -2.850563 2.422685 -3.468671 -5.234831 2.356872 -2.616969 5.277344 1.543251 -6.983692 -2.847780 -0.222396 0.035838 0.000000 0.000000 0.000000 -12.056341 15.028014 3.669545 -58.333576 18.710867 26.091001 -4.316918 -18.524967 -0.022188 -5.360974 11.380213 -0.528057 -0.090120 -0.042560 -0.000000 0.000000 0.000000 0.000000 0.000000 0.000000 0.000000 6.329371 10.444359 -0.026013 56.032237 34.941640 21.354869 0.528088 68.318732 -0.045605 -6.341230 9.859933 -0.581008 0.054215 -0.522746 -0.000000 0.000000 0.000000 0.000000 0.000000 0.000000 0.000000 
6.955394 16.159842 0.861832 31.313819 76.731062 34.030882 -8.103425 0.788502 -0.094289 -22.007766 1.137692 -31.753513 -1.830772 1.750433 44.296463 1.983035 8.292234 -17.664047 -1.815000 -0.000000 -12.148299 13.921424 -2.267212 -3.196554 -11.866384 -15.555731 -11.239832 -2.144838 -5.555578 71.761292 -2.844052 -12.987084 18.192014 -4.655700 0.000001 -49.979400 -11.123869 1.719640 2.316061 -2.863846 2.362664 -3.381751 -5.336973 2.300343 -2.663142 5.369894 1.687971 -6.861774 -3.007751 -0.234036 0.048698 0.000000 0.000000 0.000000 -12.291926 14.481003 3.738141 -58.538344 15.292586 25.088219 -4.285415 -16.619397 -0.016340 -3.114493 10.499013 -0.279641 -0.081611 -0.022290 -0.000000 0.000000 0.000000 0.000000 0.000000 0.000000 0.000000 7.008657 10.532293 -0.003995 57.643873 33.239144 21.204022 0.555463 66.504314 -0.048698 -7.069422 10.497877 -0.688181 0.064866 -0.517041 -0.000000 0.000000 0.000000 0.000000 0.000000 0.000000 0.000000 
